<mxfile host="app.diagrams.net" modified="2023-09-16T14:44:48.189Z" agent="Mozilla/5.0 (Macintosh; Intel Mac OS X 10.12; rv:109.0) Gecko/20100101 Firefox/115.0" etag="tBWM7D8OiPClQ1_MoKiq" version="21.7.5" type="github">
  <diagram name="Page-1" id="gys8RMqcTk38uxxO6mg9">
    <mxGraphModel dx="989" dy="529" grid="1" gridSize="10" guides="1" tooltips="1" connect="1" arrows="1" fold="1" page="1" pageScale="1" pageWidth="827" pageHeight="1169" math="0" shadow="0">
      <root>
        <mxCell id="0" />
        <mxCell id="1" parent="0" />
        <mxCell id="yfzEgugh5xFMH9EvvUCM-6" value="Window (Editor)" style="swimlane;whiteSpace=wrap;html=1;" vertex="1" parent="1">
          <mxGeometry x="120" y="240" width="620" height="370" as="geometry">
            <mxRectangle x="120" y="240" width="130" height="30" as="alternateBounds" />
          </mxGeometry>
        </mxCell>
        <mxCell id="yfzEgugh5xFMH9EvvUCM-7" value="" style="swimlane;startSize=0;" vertex="1" parent="1">
          <mxGeometry x="310" y="350" width="200" height="200" as="geometry" />
        </mxCell>
        <mxCell id="yfzEgugh5xFMH9EvvUCM-10" value="&lt;div&gt;Project name:&lt;/div&gt;&lt;div&gt;&lt;br&gt;&lt;/div&gt;" style="text;html=1;align=center;verticalAlign=middle;resizable=0;points=[];autosize=1;strokeColor=none;fillColor=none;" vertex="1" parent="yfzEgugh5xFMH9EvvUCM-7">
          <mxGeometry x="4" y="40" width="100" height="40" as="geometry" />
        </mxCell>
        <mxCell id="yfzEgugh5xFMH9EvvUCM-11" value="&lt;div&gt;New Project&lt;/div&gt;" style="text;html=1;align=center;verticalAlign=middle;resizable=0;points=[];autosize=1;strokeColor=none;fillColor=none;" vertex="1" parent="yfzEgugh5xFMH9EvvUCM-7">
          <mxGeometry x="55" width="90" height="30" as="geometry" />
        </mxCell>
      </root>
    </mxGraphModel>
  </diagram>
</mxfile>
